<mxfile host="65bd71144e">
    <diagram id="eniypI6ThjQYO87AOQ85" name="Page-1">
        <mxGraphModel dx="1392" dy="784" grid="1" gridSize="10" guides="1" tooltips="1" connect="1" arrows="1" fold="1" page="1" pageScale="1" pageWidth="1100" pageHeight="850" math="0" shadow="0">
            <root>
                <mxCell id="0"/>
                <mxCell id="1" parent="0"/>
                <mxCell id="15" value="" style="edgeStyle=none;html=1;fontFamily=vazir;fontSize=16;fontColor=#000000;fillColor=#1ba1e2;strokeColor=#006EAF;fontStyle=1" edge="1" parent="1" source="11" target="14">
                    <mxGeometry relative="1" as="geometry"/>
                </mxCell>
                <mxCell id="11" value="شروع" style="ellipse;whiteSpace=wrap;html=1;fontFamily=vazir;fontSize=16;fontColor=#ffffff;fillColor=#1ba1e2;strokeColor=#006EAF;fontStyle=1" vertex="1" parent="1">
                    <mxGeometry x="490" y="160" width="120" height="80" as="geometry"/>
                </mxCell>
                <mxCell id="17" value="" style="edgeStyle=none;html=1;fontFamily=vazir;fontSize=16;fontColor=#000000;fillColor=#1ba1e2;strokeColor=#006EAF;fontStyle=1" edge="1" parent="1" source="14" target="16">
                    <mxGeometry relative="1" as="geometry"/>
                </mxCell>
                <mxCell id="14" value="n را بگیر" style="shape=parallelogram;perimeter=parallelogramPerimeter;whiteSpace=wrap;html=1;fixedSize=1;fontSize=16;fontFamily=vazir;fontColor=#ffffff;fillColor=#1ba1e2;strokeColor=#006EAF;fontStyle=1" vertex="1" parent="1">
                    <mxGeometry x="490" y="330" width="120" height="60" as="geometry"/>
                </mxCell>
                <mxCell id="19" value="" style="edgeStyle=none;html=1;fontFamily=vazir;fontSize=16;fontColor=#000000;fillColor=#1ba1e2;strokeColor=#006EAF;fontStyle=1" edge="1" parent="1" source="16" target="18">
                    <mxGeometry relative="1" as="geometry"/>
                </mxCell>
                <mxCell id="22" value="" style="edgeStyle=none;html=1;fontFamily=vazir;fontSize=16;fontColor=default;fontStyle=1" edge="1" parent="1" source="16" target="21">
                    <mxGeometry relative="1" as="geometry"/>
                </mxCell>
                <mxCell id="16" value="if n = 0" style="rhombus;whiteSpace=wrap;html=1;fontSize=16;fontFamily=vazir;fontColor=#ffffff;fillColor=#1ba1e2;strokeColor=#006EAF;fontStyle=1" vertex="1" parent="1">
                    <mxGeometry x="510" y="460" width="80" height="80" as="geometry"/>
                </mxCell>
                <mxCell id="40" style="edgeStyle=none;html=1;entryX=1;entryY=0.5;entryDx=0;entryDy=0;fontFamily=vazir;fontSize=16;fontColor=default;" edge="1" parent="1" source="18" target="35">
                    <mxGeometry relative="1" as="geometry"/>
                </mxCell>
                <mxCell id="18" value="چاپ کن صفر&amp;nbsp;" style="shape=parallelogram;perimeter=parallelogramPerimeter;whiteSpace=wrap;html=1;fixedSize=1;fontSize=16;fontFamily=vazir;fontColor=#ffffff;fillColor=#1ba1e2;strokeColor=#006EAF;fontStyle=1" vertex="1" parent="1">
                    <mxGeometry x="650" y="470" width="180" height="60" as="geometry"/>
                </mxCell>
                <mxCell id="20" value="yes&lt;br&gt;" style="text;html=1;align=center;verticalAlign=middle;resizable=0;points=[];autosize=1;strokeColor=none;fillColor=none;fontSize=16;fontFamily=vazir;fontColor=default;fontStyle=1" vertex="1" parent="1">
                    <mxGeometry x="595" y="465" width="50" height="30" as="geometry"/>
                </mxCell>
                <mxCell id="25" value="" style="edgeStyle=none;html=1;fontFamily=vazir;fontSize=16;fontColor=default;fontStyle=1" edge="1" parent="1" source="21" target="24">
                    <mxGeometry relative="1" as="geometry"/>
                </mxCell>
                <mxCell id="28" value="" style="edgeStyle=none;html=1;fontFamily=vazir;fontSize=16;fontColor=default;fontStyle=1" edge="1" parent="1" source="21" target="27">
                    <mxGeometry relative="1" as="geometry"/>
                </mxCell>
                <mxCell id="21" value="if n &amp;gt;&amp;nbsp; 0" style="rhombus;whiteSpace=wrap;html=1;fontSize=16;fontFamily=vazir;fillColor=#1ba1e2;strokeColor=#006EAF;fontColor=#ffffff;fontStyle=1" vertex="1" parent="1">
                    <mxGeometry x="510" y="620" width="80" height="80" as="geometry"/>
                </mxCell>
                <mxCell id="23" value="no" style="text;html=1;align=center;verticalAlign=middle;resizable=0;points=[];autosize=1;strokeColor=none;fillColor=none;fontSize=16;fontFamily=vazir;fontColor=default;fontStyle=1" vertex="1" parent="1">
                    <mxGeometry x="505" y="570" width="40" height="30" as="geometry"/>
                </mxCell>
                <mxCell id="36" style="edgeStyle=none;html=1;fontFamily=vazir;fontSize=16;fontColor=default;fontStyle=1" edge="1" parent="1" source="24" target="35">
                    <mxGeometry relative="1" as="geometry"/>
                </mxCell>
                <mxCell id="24" value="چاپ کن مثبت" style="shape=parallelogram;perimeter=parallelogramPerimeter;whiteSpace=wrap;html=1;fixedSize=1;fontSize=16;fontFamily=vazir;fillColor=#1ba1e2;strokeColor=#006EAF;fontColor=#ffffff;fontStyle=1" vertex="1" parent="1">
                    <mxGeometry x="490" y="750" width="120" height="60" as="geometry"/>
                </mxCell>
                <mxCell id="26" value="yes" style="text;html=1;align=center;verticalAlign=middle;resizable=0;points=[];autosize=1;strokeColor=none;fillColor=none;fontSize=16;fontFamily=vazir;fontColor=default;fontStyle=1" vertex="1" parent="1">
                    <mxGeometry x="500" y="710" width="50" height="30" as="geometry"/>
                </mxCell>
                <mxCell id="37" style="edgeStyle=none;html=1;fontFamily=vazir;fontSize=16;fontColor=default;fontStyle=1" edge="1" parent="1" source="27" target="35">
                    <mxGeometry relative="1" as="geometry"/>
                </mxCell>
                <mxCell id="27" value="چاپ کن منفی" style="shape=parallelogram;perimeter=parallelogramPerimeter;whiteSpace=wrap;html=1;fixedSize=1;fontSize=16;fontFamily=vazir;fillColor=#1ba1e2;strokeColor=#006EAF;fontColor=#ffffff;fontStyle=1" vertex="1" parent="1">
                    <mxGeometry x="650" y="630" width="120" height="60" as="geometry"/>
                </mxCell>
                <mxCell id="35" value="پایان" style="ellipse;whiteSpace=wrap;html=1;fontFamily=vazir;fontSize=16;fontColor=#ffffff;fillColor=#1ba1e2;strokeColor=#006EAF;fontStyle=1" vertex="1" parent="1">
                    <mxGeometry x="500" y="910" width="120" height="80" as="geometry"/>
                </mxCell>
                <mxCell id="39" value="no" style="text;html=1;align=center;verticalAlign=middle;resizable=0;points=[];autosize=1;strokeColor=none;fillColor=none;fontSize=16;fontFamily=vazir;fontColor=default;" vertex="1" parent="1">
                    <mxGeometry x="600" y="625" width="40" height="30" as="geometry"/>
                </mxCell>
            </root>
        </mxGraphModel>
    </diagram>
</mxfile>
